<svg width="60" height="60" viewBox="0 0 60 60" fill="none" xmlns="http://www.w3.org/2000/svg">
<rect width="60" height="60" rx="10" fill="white"/>
<g filter="url(#filter0_i_11_11)">
<path d="M30.0143 55.176C26.5156 55.176 23.2303 54.5147 20.1583 53.192C17.1289 51.912 14.4409 50.12 12.0943 47.816C9.79025 45.4693 7.97692 42.76 6.65425 39.688C5.33158 36.616 4.67025 33.3307 4.67025 29.832C4.67025 26.3333 5.33158 23.048 6.65425 19.976C7.97692 16.904 9.79025 14.216 12.0943 11.912C14.4409 9.56533 17.1289 7.752 20.1583 6.472C23.2303 5.14933 26.5156 4.488 30.0143 4.488C33.5129 4.488 36.7983 5.14933 39.8703 6.472C42.9423 7.752 45.6303 9.56533 47.9343 11.912C50.2809 14.216 52.0943 16.904 53.3743 19.976C54.6969 23.048 55.3583 26.3333 55.3583 29.832C55.3583 33.3307 54.6969 36.616 53.3743 39.688C52.0943 42.76 50.2809 45.4693 47.9343 47.816C45.6303 50.12 42.9423 51.912 39.8703 53.192C36.7983 54.5147 33.5129 55.176 30.0143 55.176ZM30.0143 50.76C32.9156 50.76 35.6249 50.2267 38.1423 49.16C40.6596 48.0507 42.8783 46.536 44.7983 44.616C46.7183 42.696 48.2116 40.4773 49.2783 37.96C50.3876 35.4427 50.9423 32.7333 50.9423 29.832C50.9423 26.9307 50.3876 24.2213 49.2783 21.704C48.2116 19.1867 46.7183 16.968 44.7983 15.048C42.8783 13.128 40.6596 11.6347 38.1423 10.568C35.6249 9.45867 32.9156 8.904 30.0143 8.904C27.1129 8.904 24.4036 9.45867 21.8863 10.568C19.3689 11.6347 17.1503 13.128 15.2303 15.048C13.3103 16.968 11.7956 19.1867 10.6863 21.704C9.61958 24.2213 9.08625 26.9307 9.08625 29.832C9.08625 32.7333 9.61958 35.4427 10.6863 37.96C11.7956 40.4773 13.3103 42.696 15.2303 44.616C17.1503 46.536 19.3689 48.0507 21.8863 49.16C24.4036 50.2267 27.1129 50.76 30.0143 50.76ZM30.0143 47.688C27.5396 47.688 25.2143 47.24 23.0383 46.344C20.9049 45.4053 19.0063 44.1253 17.3423 42.504C15.7209 40.84 14.4409 38.9413 13.5023 36.808C12.6063 34.632 12.1583 32.3067 12.1583 29.832C12.1583 27.3573 12.6063 25.0533 13.5023 22.92C14.4409 20.744 15.7209 18.8453 17.3423 17.224C19.0063 15.56 20.9049 14.28 23.0383 13.384C25.2143 12.4453 27.5396 11.976 30.0143 11.976C32.4889 11.976 34.8143 12.4453 36.9903 13.384C39.1663 14.28 41.0649 15.56 42.6863 17.224C44.3503 18.8453 45.6303 20.744 46.5263 22.92C47.4649 25.0533 47.9343 27.3573 47.9343 29.832C47.9343 32.3067 47.4649 34.632 46.5263 36.808C45.6303 38.9413 44.3503 40.84 42.6863 42.504C41.0649 44.1253 39.1663 45.4053 36.9903 46.344C34.8143 47.24 32.4889 47.688 30.0143 47.688Z" fill="#007BFF"/>
</g>
<g filter="url(#filter1_d_11_11)">
<path d="M22 29L29 37" stroke="white" stroke-width="3" stroke-linecap="round"/>
<path d="M29 37L39 22" stroke="white" stroke-width="3" stroke-linecap="round"/>
</g>
<defs>
<filter id="filter0_i_11_11" x="4.67025" y="4.48804" width="51.688" height="51.688" filterUnits="userSpaceOnUse" color-interpolation-filters="sRGB">
<feFlood flood-opacity="0" result="BackgroundImageFix"/>
<feBlend mode="normal" in="SourceGraphic" in2="BackgroundImageFix" result="shape"/>
<feColorMatrix in="SourceAlpha" type="matrix" values="0 0 0 0 0 0 0 0 0 0 0 0 0 0 0 0 0 0 127 0" result="hardAlpha"/>
<feOffset dx="1" dy="1"/>
<feGaussianBlur stdDeviation="2"/>
<feComposite in2="hardAlpha" operator="arithmetic" k2="-1" k3="1"/>
<feColorMatrix type="matrix" values="0 0 0 0 0 0 0 0 0 0 0 0 0 0 0 0 0 0 0.5 0"/>
<feBlend mode="normal" in2="shape" result="effect1_innerShadow_11_11"/>
</filter>
<filter id="filter1_d_11_11" x="19.5" y="19.4999" width="26.0002" height="24.0002" filterUnits="userSpaceOnUse" color-interpolation-filters="sRGB">
<feFlood flood-opacity="0" result="BackgroundImageFix"/>
<feColorMatrix in="SourceAlpha" type="matrix" values="0 0 0 0 0 0 0 0 0 0 0 0 0 0 0 0 0 0 127 0" result="hardAlpha"/>
<feOffset dx="2" dy="2"/>
<feGaussianBlur stdDeviation="1.5"/>
<feComposite in2="hardAlpha" operator="out"/>
<feColorMatrix type="matrix" values="0 0 0 0 0 0 0 0 0 0 0 0 0 0 0 0 0 0 0.5 0"/>
<feBlend mode="normal" in2="BackgroundImageFix" result="effect1_dropShadow_11_11"/>
<feBlend mode="normal" in="SourceGraphic" in2="effect1_dropShadow_11_11" result="shape"/>
</filter>
</defs>
</svg>
